<svg width="32" height="32" viewBox="0 0 32 32" fill="none" xmlns="http://www.w3.org/2000/svg">
<path d="M15.9998 29.3333C23.3636 29.3333 29.3332 23.3638 29.3332 16C29.3332 8.63621 23.3636 2.66667 15.9998 2.66667C8.63604 2.66667 2.6665 8.63621 2.6665 16C2.6665 23.3638 8.63604 29.3333 15.9998 29.3333Z" stroke="white" stroke-width="2" stroke-linecap="round" stroke-linejoin="round"/>
<path d="M12.1201 12C12.4336 11.1089 13.0523 10.3575 13.8667 9.87884C14.6811 9.40021 15.6386 9.22525 16.5697 9.38495C17.5007 9.54464 18.3452 10.0287 18.9536 10.7514C19.5619 11.474 19.8949 12.3887 19.8935 13.3333C19.8935 16 15.8935 17.3333 15.8935 17.3333" stroke="white" stroke-width="2" stroke-linecap="round" stroke-linejoin="round"/>
<path d="M16 22.6667H16.0133" stroke="white" stroke-width="2" stroke-linecap="round" stroke-linejoin="round"/>
</svg>
